<?xml version="1.0" encoding="utf-8"?>
<!-- Generator: Adobe Illustrator 24.1.3, SVG Export Plug-In . SVG Version: 6.00 Build 0)  -->
<svg version="1.1" id="Layer_1" xmlns="http://www.w3.org/2000/svg" xmlns:xlink="http://www.w3.org/1999/xlink" x="0px" y="0px"
	 viewBox="0 0 420 120" style="enable-background:new 0 0 420 120;" xml:space="preserve">
<style type="text/css">
	.st0{fill:#CFEAC6;stroke:#6AA96C;}
	.st1{fill:#111111;}
	.st2{fill:none;stroke:#111111;stroke-width:2;}
	.st3{font-family:'ArialMT';}
	.st4{font-size:9.5995px;}
	.st5{font-size:12px;}
	.st6{fill:none;}
</style>
<path class="st0" d="M8,2h404c3.3,0,6,2.7,6,6v104c0,3.3-2.7,6-6,6H8c-3.3,0-6-2.7-6-6V8C2,4.7,4.7,2,8,2z"/>
<g>
	<path class="st1" d="M20,78h8c1.1,0,2,0.9,2,2v8c0,1.1-0.9,2-2,2h-8c-1.1,0-2-0.9-2-2v-8C18,78.9,18.9,78,20,78z"/>
	<path class="st1" d="M98,78.5h8c1.1,0,2,0.9,2,2v8c0,1.1-0.9,2-2,2h-8c-1.1,0-2-0.9-2-2v-8C96,79.4,96.9,78.5,98,78.5z"/>
	<path class="st1" d="M176,78.5h8c1.1,0,2,0.9,2,2v8c0,1.1-0.9,2-2,2h-8c-1.1,0-2-0.9-2-2v-8C174,79.4,174.9,78.5,176,78.5z"/>
	<path class="st1" d="M248,78.5h8c1.1,0,2,0.9,2,2v8c0,1.1-0.9,2-2,2h-8c-1.1,0-2-0.9-2-2v-8C246,79.4,246.9,78.5,248,78.5z"/>
</g>
<line class="st2" x1="20" y1="104" x2="340" y2="104"/>
<line class="st2" x1="24" y1="96" x2="24" y2="104"/>
<line class="st2" x1="102" y1="96" x2="102" y2="104"/>
<line class="st2" x1="252" y1="96" x2="252" y2="104"/>
<text transform="matrix(1.2501 0 0 1 61 91.7793)" class="st3 st4">y</text>
<text transform="matrix(1 0 0 1 140 96)" class="st3 st5">y</text>
<text transform="matrix(1 0 0 1 217 96)" class="st3 st5">y</text>
<path class="st6" d=""/>
<path class="st1" d="M18,30"/>
<path class="st6" d=""/>
<path class="st1" d="M18,22"/>
<path class="st6" d=""/>
<path class="st1" d="M18,22"/>
<text transform="matrix(6.123234e-17 -1 1 6.123234e-17 17 62)" class="st3 st5">x</text>
<path class="st6" d=""/>
<path marker-start="url(#arrowhead)" marker-end="url(#arrowhead)" class="st1" d="M32,84"/>
<line class="st2" x1="179.5" y1="97.5" x2="179.5" y2="105.5"/>
<g>
	<path class="st1" d="M20,23.6h8c1.1,0,2,0.9,2,2v8c0,1.1-0.9,2-2,2h-8c-1.1,0-2-0.9-2-2v-8C18,24.5,18.9,23.6,20,23.6z"/>
	<path class="st1" d="M98,24.1h8c1.1,0,2,0.9,2,2v8c0,1.1-0.9,2-2,2h-8c-1.1,0-2-0.9-2-2v-8C96,25,96.9,24.1,98,24.1z"/>
	<path class="st1" d="M176,24.1h8c1.1,0,2,0.9,2,2v8c0,1.1-0.9,2-2,2h-8c-1.1,0-2-0.9-2-2v-8C174,25,174.9,24.1,176,24.1z"/>
	<path class="st1" d="M248,24.1h8c1.1,0,2,0.9,2,2v8c0,1.1-0.9,2-2,2h-8c-1.1,0-2-0.9-2-2v-8C246,25,246.9,24.1,248,24.1z"/>
</g>
</svg>
